<mxfile host="app.diagrams.net" modified="2022-04-01T08:00:47.506Z" agent="5.0 (Windows NT 10.0; Win64; x64) AppleWebKit/537.36 (KHTML, like Gecko) Chrome/99.0.4844.51 Safari/537.36 Edg/99.0.1150.39" etag="ymWJd7ef5T7_hNu-DTTX" version="17.1.3" type="github">
  <diagram id="C5RBs43oDa-KdzZeNtuy" name="Page-1">
    <mxGraphModel dx="1897" dy="681" grid="1" gridSize="10" guides="1" tooltips="1" connect="1" arrows="1" fold="1" page="1" pageScale="1" pageWidth="827" pageHeight="1169" math="0" shadow="0">
      <root>
        <mxCell id="WIyWlLk6GJQsqaUBKTNV-0" />
        <mxCell id="WIyWlLk6GJQsqaUBKTNV-1" parent="WIyWlLk6GJQsqaUBKTNV-0" />
        <mxCell id="a2AHrpmJnOTwJ1RgOr1F-55" value="追踪溯源中心" style="ellipse;whiteSpace=wrap;html=1;" vertex="1" parent="WIyWlLk6GJQsqaUBKTNV-1">
          <mxGeometry x="170" y="270" width="140" height="80" as="geometry" />
        </mxCell>
        <mxCell id="a2AHrpmJnOTwJ1RgOr1F-118" style="edgeStyle=none;rounded=0;orthogonalLoop=1;jettySize=auto;html=1;entryX=0;entryY=0.5;entryDx=0;entryDy=0;" edge="1" parent="WIyWlLk6GJQsqaUBKTNV-1" target="a2AHrpmJnOTwJ1RgOr1F-103">
          <mxGeometry relative="1" as="geometry">
            <mxPoint x="-140" y="280" as="sourcePoint" />
          </mxGeometry>
        </mxCell>
        <mxCell id="a2AHrpmJnOTwJ1RgOr1F-119" style="edgeStyle=none;rounded=0;orthogonalLoop=1;jettySize=auto;html=1;entryX=0;entryY=0.5;entryDx=0;entryDy=0;" edge="1" parent="WIyWlLk6GJQsqaUBKTNV-1" source="a2AHrpmJnOTwJ1RgOr1F-102" target="a2AHrpmJnOTwJ1RgOr1F-106">
          <mxGeometry relative="1" as="geometry">
            <mxPoint x="-120" y="290" as="sourcePoint" />
          </mxGeometry>
        </mxCell>
        <mxCell id="a2AHrpmJnOTwJ1RgOr1F-120" style="edgeStyle=none;rounded=0;orthogonalLoop=1;jettySize=auto;html=1;entryX=0;entryY=0.5;entryDx=0;entryDy=0;" edge="1" parent="WIyWlLk6GJQsqaUBKTNV-1" source="a2AHrpmJnOTwJ1RgOr1F-102" target="a2AHrpmJnOTwJ1RgOr1F-115">
          <mxGeometry relative="1" as="geometry" />
        </mxCell>
        <mxCell id="a2AHrpmJnOTwJ1RgOr1F-150" style="edgeStyle=none;rounded=0;orthogonalLoop=1;jettySize=auto;html=1;exitX=1;exitY=1;exitDx=0;exitDy=0;entryX=0;entryY=0.5;entryDx=0;entryDy=0;" edge="1" parent="WIyWlLk6GJQsqaUBKTNV-1" source="a2AHrpmJnOTwJ1RgOr1F-102" target="a2AHrpmJnOTwJ1RgOr1F-147">
          <mxGeometry relative="1" as="geometry" />
        </mxCell>
        <mxCell id="a2AHrpmJnOTwJ1RgOr1F-102" value="检测分析中心" style="ellipse;whiteSpace=wrap;html=1;" vertex="1" parent="WIyWlLk6GJQsqaUBKTNV-1">
          <mxGeometry x="-250" y="266.4" width="140" height="80" as="geometry" />
        </mxCell>
        <mxCell id="a2AHrpmJnOTwJ1RgOr1F-121" style="edgeStyle=none;rounded=0;orthogonalLoop=1;jettySize=auto;html=1;exitX=1;exitY=0.5;exitDx=0;exitDy=0;" edge="1" parent="WIyWlLk6GJQsqaUBKTNV-1" source="a2AHrpmJnOTwJ1RgOr1F-103" target="a2AHrpmJnOTwJ1RgOr1F-55">
          <mxGeometry relative="1" as="geometry" />
        </mxCell>
        <mxCell id="a2AHrpmJnOTwJ1RgOr1F-103" value="关联分析规则&amp;amp;任务" style="rounded=0;whiteSpace=wrap;html=1;" vertex="1" parent="WIyWlLk6GJQsqaUBKTNV-1">
          <mxGeometry x="-30" y="172.54" width="120" height="30" as="geometry" />
        </mxCell>
        <mxCell id="a2AHrpmJnOTwJ1RgOr1F-104" value="" style="endArrow=none;html=1;rounded=0;" edge="1" parent="WIyWlLk6GJQsqaUBKTNV-1">
          <mxGeometry width="50" height="50" relative="1" as="geometry">
            <mxPoint x="-30" y="206.54" as="sourcePoint" />
            <mxPoint x="90" y="206.54" as="targetPoint" />
          </mxGeometry>
        </mxCell>
        <mxCell id="a2AHrpmJnOTwJ1RgOr1F-105" value="" style="endArrow=none;html=1;rounded=0;" edge="1" parent="WIyWlLk6GJQsqaUBKTNV-1">
          <mxGeometry width="50" height="50" relative="1" as="geometry">
            <mxPoint x="-30" y="212.53999999999996" as="sourcePoint" />
            <mxPoint x="90" y="212.53999999999996" as="targetPoint" />
          </mxGeometry>
        </mxCell>
        <mxCell id="a2AHrpmJnOTwJ1RgOr1F-122" style="edgeStyle=none;rounded=0;orthogonalLoop=1;jettySize=auto;html=1;exitX=1;exitY=0.5;exitDx=0;exitDy=0;entryX=0.031;entryY=0.257;entryDx=0;entryDy=0;entryPerimeter=0;" edge="1" parent="WIyWlLk6GJQsqaUBKTNV-1" source="a2AHrpmJnOTwJ1RgOr1F-106" target="a2AHrpmJnOTwJ1RgOr1F-55">
          <mxGeometry relative="1" as="geometry" />
        </mxCell>
        <mxCell id="a2AHrpmJnOTwJ1RgOr1F-106" value="攻击链聚合规则&amp;amp;任务" style="rounded=0;whiteSpace=wrap;html=1;" vertex="1" parent="WIyWlLk6GJQsqaUBKTNV-1">
          <mxGeometry x="-30" y="246.22000000000003" width="120" height="30" as="geometry" />
        </mxCell>
        <mxCell id="a2AHrpmJnOTwJ1RgOr1F-107" value="" style="endArrow=none;html=1;rounded=0;" edge="1" parent="WIyWlLk6GJQsqaUBKTNV-1">
          <mxGeometry width="50" height="50" relative="1" as="geometry">
            <mxPoint x="-30" y="280.22" as="sourcePoint" />
            <mxPoint x="90" y="280.22" as="targetPoint" />
          </mxGeometry>
        </mxCell>
        <mxCell id="a2AHrpmJnOTwJ1RgOr1F-108" value="" style="endArrow=none;html=1;rounded=0;" edge="1" parent="WIyWlLk6GJQsqaUBKTNV-1">
          <mxGeometry width="50" height="50" relative="1" as="geometry">
            <mxPoint x="-30" y="286.22" as="sourcePoint" />
            <mxPoint x="90" y="286.22" as="targetPoint" />
          </mxGeometry>
        </mxCell>
        <mxCell id="a2AHrpmJnOTwJ1RgOr1F-123" style="edgeStyle=none;rounded=0;orthogonalLoop=1;jettySize=auto;html=1;exitX=1;exitY=0.5;exitDx=0;exitDy=0;entryX=0.009;entryY=0.622;entryDx=0;entryDy=0;entryPerimeter=0;" edge="1" parent="WIyWlLk6GJQsqaUBKTNV-1" source="a2AHrpmJnOTwJ1RgOr1F-115" target="a2AHrpmJnOTwJ1RgOr1F-55">
          <mxGeometry relative="1" as="geometry" />
        </mxCell>
        <mxCell id="a2AHrpmJnOTwJ1RgOr1F-115" value="&lt;span style=&quot;font-weight: normal&quot;&gt;白名单&lt;/span&gt;" style="rounded=0;whiteSpace=wrap;html=1;fontStyle=1" vertex="1" parent="WIyWlLk6GJQsqaUBKTNV-1">
          <mxGeometry x="-30" y="319.22" width="120" height="30" as="geometry" />
        </mxCell>
        <mxCell id="a2AHrpmJnOTwJ1RgOr1F-116" value="" style="endArrow=none;html=1;rounded=0;fontStyle=1" edge="1" parent="WIyWlLk6GJQsqaUBKTNV-1">
          <mxGeometry width="50" height="50" relative="1" as="geometry">
            <mxPoint x="-30" y="353.22" as="sourcePoint" />
            <mxPoint x="90" y="353.22" as="targetPoint" />
          </mxGeometry>
        </mxCell>
        <mxCell id="a2AHrpmJnOTwJ1RgOr1F-117" value="" style="endArrow=none;html=1;rounded=0;fontStyle=1" edge="1" parent="WIyWlLk6GJQsqaUBKTNV-1">
          <mxGeometry width="50" height="50" relative="1" as="geometry">
            <mxPoint x="-30" y="359.22000000000025" as="sourcePoint" />
            <mxPoint x="90" y="359.22000000000025" as="targetPoint" />
          </mxGeometry>
        </mxCell>
        <mxCell id="a2AHrpmJnOTwJ1RgOr1F-151" style="edgeStyle=none;rounded=0;orthogonalLoop=1;jettySize=auto;html=1;entryX=0.185;entryY=0.875;entryDx=0;entryDy=0;entryPerimeter=0;exitX=1;exitY=0.5;exitDx=0;exitDy=0;" edge="1" parent="WIyWlLk6GJQsqaUBKTNV-1" source="a2AHrpmJnOTwJ1RgOr1F-147" target="a2AHrpmJnOTwJ1RgOr1F-55">
          <mxGeometry relative="1" as="geometry" />
        </mxCell>
        <mxCell id="a2AHrpmJnOTwJ1RgOr1F-147" value="安全信息" style="rounded=0;whiteSpace=wrap;html=1;" vertex="1" parent="WIyWlLk6GJQsqaUBKTNV-1">
          <mxGeometry x="-30" y="399" width="120" height="30" as="geometry" />
        </mxCell>
        <mxCell id="a2AHrpmJnOTwJ1RgOr1F-148" value="" style="endArrow=none;html=1;rounded=0;" edge="1" parent="WIyWlLk6GJQsqaUBKTNV-1">
          <mxGeometry width="50" height="50" relative="1" as="geometry">
            <mxPoint x="-30" y="433" as="sourcePoint" />
            <mxPoint x="90" y="433" as="targetPoint" />
          </mxGeometry>
        </mxCell>
        <mxCell id="a2AHrpmJnOTwJ1RgOr1F-149" value="" style="endArrow=none;html=1;rounded=0;" edge="1" parent="WIyWlLk6GJQsqaUBKTNV-1">
          <mxGeometry width="50" height="50" relative="1" as="geometry">
            <mxPoint x="-30" y="439.0000000000002" as="sourcePoint" />
            <mxPoint x="90" y="439.0000000000002" as="targetPoint" />
          </mxGeometry>
        </mxCell>
      </root>
    </mxGraphModel>
  </diagram>
</mxfile>
